<mxfile host="app.diagrams.net" agent="Mozilla/5.0 (Windows NT 10.0; Win64; x64) AppleWebKit/537.36 (KHTML, like Gecko) Chrome/132.0.0.0 Safari/537.36" version="26.0.10" pages="6">
  <diagram name="Página-1" id="jF-TrteeR9QNB5NqUSbY">
    <mxGraphModel dx="1434" dy="780" grid="1" gridSize="10" guides="1" tooltips="1" connect="1" arrows="1" fold="1" page="1" pageScale="1" pageWidth="1390" pageHeight="980" math="0" shadow="0">
      <root>
        <mxCell id="0" />
        <mxCell id="1" parent="0" />
        <mxCell id="OIJfwh7GsTm2w1Hqfgm6-2" style="edgeStyle=orthogonalEdgeStyle;rounded=0;orthogonalLoop=1;jettySize=auto;html=1;exitX=0.5;exitY=1;exitDx=0;exitDy=0;entryX=0.5;entryY=0;entryDx=0;entryDy=0;fontFamily=Helvetica;fontSize=12;fontColor=default;" edge="1" parent="1" source="j4xDwtCkz_A_Mmk4PRSI-1" target="OIJfwh7GsTm2w1Hqfgm6-1">
          <mxGeometry relative="1" as="geometry" />
        </mxCell>
        <mxCell id="j4xDwtCkz_A_Mmk4PRSI-1" value="Programa tres en raya&amp;nbsp;" style="rounded=1;whiteSpace=wrap;html=1;" parent="1" vertex="1">
          <mxGeometry x="483" y="80" width="240" height="60" as="geometry" />
        </mxCell>
        <mxCell id="wGcG7gwSBG4pi2k20zKJ-2" style="edgeStyle=orthogonalEdgeStyle;rounded=0;orthogonalLoop=1;jettySize=auto;html=1;exitX=0.5;exitY=1;exitDx=0;exitDy=0;entryX=0.5;entryY=0;entryDx=0;entryDy=0;" edge="1" parent="1" source="j4xDwtCkz_A_Mmk4PRSI-4" target="j4xDwtCkz_A_Mmk4PRSI-5">
          <mxGeometry relative="1" as="geometry" />
        </mxCell>
        <UserObject label="Solicitamos las coordenadas al usuario (X)" link="data:page/id,SMjD8cbjWDfh5UchtumX" id="j4xDwtCkz_A_Mmk4PRSI-4">
          <mxCell style="rounded=1;whiteSpace=wrap;html=1;" parent="1" vertex="1">
            <mxGeometry x="478" y="430" width="250" height="60" as="geometry" />
          </mxCell>
        </UserObject>
        <mxCell id="wGcG7gwSBG4pi2k20zKJ-3" style="edgeStyle=orthogonalEdgeStyle;rounded=0;orthogonalLoop=1;jettySize=auto;html=1;exitX=0.5;exitY=1;exitDx=0;exitDy=0;entryX=0.5;entryY=0;entryDx=0;entryDy=0;" edge="1" parent="1" source="j4xDwtCkz_A_Mmk4PRSI-5" target="j4xDwtCkz_A_Mmk4PRSI-10">
          <mxGeometry relative="1" as="geometry" />
        </mxCell>
        <UserObject label="Creamos unas coordenadas de la maquina" link="data:page/id,G00Kvy4_vVHr3NjlVoM4" id="j4xDwtCkz_A_Mmk4PRSI-5">
          <mxCell style="rounded=1;whiteSpace=wrap;html=1;" parent="1" vertex="1">
            <mxGeometry x="478" y="540" width="250" height="60" as="geometry" />
          </mxCell>
        </UserObject>
        <mxCell id="wGcG7gwSBG4pi2k20zKJ-6" style="edgeStyle=orthogonalEdgeStyle;rounded=0;orthogonalLoop=1;jettySize=auto;html=1;exitX=0.5;exitY=1;exitDx=0;exitDy=0;entryX=0.5;entryY=0;entryDx=0;entryDy=0;" edge="1" parent="1" source="j4xDwtCkz_A_Mmk4PRSI-10" target="wGcG7gwSBG4pi2k20zKJ-4">
          <mxGeometry relative="1" as="geometry" />
        </mxCell>
        <UserObject label="Mostramos las coordenadas en el tablero" link="data:page/id,O1D0eLRtDBz-67mz0hgI" id="j4xDwtCkz_A_Mmk4PRSI-10">
          <mxCell style="rounded=1;whiteSpace=wrap;html=1;" parent="1" vertex="1">
            <mxGeometry x="480.5" y="660" width="245" height="80" as="geometry" />
          </mxCell>
        </UserObject>
        <UserObject label="Mostramos ganador" link="data:page/id,_XcbKt95XyZNaCErvyzg" id="wGcG7gwSBG4pi2k20zKJ-4">
          <mxCell style="rounded=1;whiteSpace=wrap;html=1;" vertex="1" parent="1">
            <mxGeometry x="480.5" y="790" width="245" height="80" as="geometry" />
          </mxCell>
        </UserObject>
        <mxCell id="JHvzHlxX1gQLmNKFRoCM-4" style="edgeStyle=orthogonalEdgeStyle;rounded=0;orthogonalLoop=1;jettySize=auto;html=1;exitX=0.5;exitY=1;exitDx=0;exitDy=0;entryX=0.5;entryY=0;entryDx=0;entryDy=0;fontFamily=Helvetica;fontSize=12;fontColor=default;" edge="1" parent="1" source="JHvzHlxX1gQLmNKFRoCM-2" target="j4xDwtCkz_A_Mmk4PRSI-4">
          <mxGeometry relative="1" as="geometry" />
        </mxCell>
        <UserObject label="Hacemos Proyecto.sorteo de quien comienza" link="data:page/id,4UyHGNbMUVz01JeFbusp" id="JHvzHlxX1gQLmNKFRoCM-2">
          <mxCell style="rounded=1;whiteSpace=wrap;html=1;" vertex="1" parent="1">
            <mxGeometry x="480.5" y="310" width="245" height="80" as="geometry" />
          </mxCell>
        </UserObject>
        <mxCell id="OIJfwh7GsTm2w1Hqfgm6-3" style="edgeStyle=orthogonalEdgeStyle;rounded=0;orthogonalLoop=1;jettySize=auto;html=1;exitX=0.5;exitY=1;exitDx=0;exitDy=0;entryX=0.5;entryY=0;entryDx=0;entryDy=0;fontFamily=Helvetica;fontSize=12;fontColor=default;" edge="1" parent="1" source="OIJfwh7GsTm2w1Hqfgm6-1" target="JHvzHlxX1gQLmNKFRoCM-2">
          <mxGeometry relative="1" as="geometry" />
        </mxCell>
        <mxCell id="OIJfwh7GsTm2w1Hqfgm6-1" value="Mostramos el tablero" style="rounded=1;whiteSpace=wrap;html=1;" vertex="1" parent="1">
          <mxGeometry x="483" y="190" width="240" height="60" as="geometry" />
        </mxCell>
      </root>
    </mxGraphModel>
  </diagram>
  <diagram id="SMjD8cbjWDfh5UchtumX" name="Página-2">
    <mxGraphModel dx="1434" dy="780" grid="1" gridSize="10" guides="1" tooltips="1" connect="1" arrows="1" fold="1" page="1" pageScale="1" pageWidth="1390" pageHeight="980" math="0" shadow="0">
      <root>
        <mxCell id="0" />
        <mxCell id="1" parent="0" />
        <mxCell id="-_L-u85VqvfpOxOQPtvi-9" style="edgeStyle=orthogonalEdgeStyle;rounded=0;orthogonalLoop=1;jettySize=auto;html=1;exitX=0.5;exitY=1;exitDx=0;exitDy=0;entryX=0.5;entryY=0;entryDx=0;entryDy=0;fontFamily=Helvetica;fontSize=12;fontColor=default;" edge="1" parent="1" source="-_L-u85VqvfpOxOQPtvi-2" target="-_L-u85VqvfpOxOQPtvi-3">
          <mxGeometry relative="1" as="geometry" />
        </mxCell>
        <mxCell id="-_L-u85VqvfpOxOQPtvi-2" value="Creamos un Scanner" style="rounded=1;whiteSpace=wrap;html=1;strokeColor=default;align=center;verticalAlign=middle;fontFamily=Helvetica;fontSize=12;fontColor=default;fillColor=default;" vertex="1" parent="1">
          <mxGeometry x="480" y="40" width="200" height="60" as="geometry" />
        </mxCell>
        <mxCell id="-_L-u85VqvfpOxOQPtvi-10" style="edgeStyle=orthogonalEdgeStyle;rounded=0;orthogonalLoop=1;jettySize=auto;html=1;exitX=0.5;exitY=1;exitDx=0;exitDy=0;entryX=0.5;entryY=0;entryDx=0;entryDy=0;fontFamily=Helvetica;fontSize=12;fontColor=default;" edge="1" parent="1" source="-_L-u85VqvfpOxOQPtvi-3" target="-_L-u85VqvfpOxOQPtvi-4">
          <mxGeometry relative="1" as="geometry" />
        </mxCell>
        <mxCell id="-_L-u85VqvfpOxOQPtvi-3" value="Solicitamos la fila (1-3)" style="rounded=1;whiteSpace=wrap;html=1;" vertex="1" parent="1">
          <mxGeometry x="480" y="170" width="200" height="80" as="geometry" />
        </mxCell>
        <mxCell id="-_L-u85VqvfpOxOQPtvi-11" style="edgeStyle=orthogonalEdgeStyle;rounded=0;orthogonalLoop=1;jettySize=auto;html=1;exitX=0.5;exitY=1;exitDx=0;exitDy=0;entryX=0.5;entryY=0;entryDx=0;entryDy=0;fontFamily=Helvetica;fontSize=12;fontColor=default;" edge="1" parent="1" source="-_L-u85VqvfpOxOQPtvi-4" target="-_L-u85VqvfpOxOQPtvi-5">
          <mxGeometry relative="1" as="geometry" />
        </mxCell>
        <mxCell id="-_L-u85VqvfpOxOQPtvi-4" value="Recogemos el numero&amp;nbsp;" style="rounded=1;whiteSpace=wrap;html=1;" vertex="1" parent="1">
          <mxGeometry x="480" y="310" width="200" height="80" as="geometry" />
        </mxCell>
        <mxCell id="-_L-u85VqvfpOxOQPtvi-12" style="edgeStyle=orthogonalEdgeStyle;rounded=0;orthogonalLoop=1;jettySize=auto;html=1;exitX=0.5;exitY=1;exitDx=0;exitDy=0;entryX=0.5;entryY=0;entryDx=0;entryDy=0;fontFamily=Helvetica;fontSize=12;fontColor=default;" edge="1" parent="1" source="-_L-u85VqvfpOxOQPtvi-5" target="-_L-u85VqvfpOxOQPtvi-6">
          <mxGeometry relative="1" as="geometry" />
        </mxCell>
        <mxCell id="-_L-u85VqvfpOxOQPtvi-5" value="Solicitamos la columna (1-3)" style="rounded=1;whiteSpace=wrap;html=1;" vertex="1" parent="1">
          <mxGeometry x="480" y="440" width="200" height="80" as="geometry" />
        </mxCell>
        <mxCell id="-_L-u85VqvfpOxOQPtvi-13" style="edgeStyle=orthogonalEdgeStyle;rounded=0;orthogonalLoop=1;jettySize=auto;html=1;exitX=0.5;exitY=1;exitDx=0;exitDy=0;entryX=0.5;entryY=0;entryDx=0;entryDy=0;fontFamily=Helvetica;fontSize=12;fontColor=default;" edge="1" parent="1" source="-_L-u85VqvfpOxOQPtvi-6" target="-_L-u85VqvfpOxOQPtvi-7">
          <mxGeometry relative="1" as="geometry" />
        </mxCell>
        <mxCell id="-_L-u85VqvfpOxOQPtvi-6" value="Recogemos el numero&amp;nbsp;" style="rounded=1;whiteSpace=wrap;html=1;" vertex="1" parent="1">
          <mxGeometry x="480" y="560" width="200" height="80" as="geometry" />
        </mxCell>
        <UserObject label="Mostramos la &#39;X&#39; en el tablero" link="data:page/id,O1D0eLRtDBz-67mz0hgI" id="-_L-u85VqvfpOxOQPtvi-7">
          <mxCell style="rounded=1;whiteSpace=wrap;html=1;" vertex="1" parent="1">
            <mxGeometry x="480" y="690" width="200" height="80" as="geometry" />
          </mxCell>
        </UserObject>
      </root>
    </mxGraphModel>
  </diagram>
  <diagram id="G00Kvy4_vVHr3NjlVoM4" name="Página-3">
    <mxGraphModel dx="1434" dy="780" grid="1" gridSize="10" guides="1" tooltips="1" connect="1" arrows="1" fold="1" page="1" pageScale="1" pageWidth="1390" pageHeight="980" math="0" shadow="0">
      <root>
        <mxCell id="0" />
        <mxCell id="1" parent="0" />
        <mxCell id="kh9mkPXQj5ANBwgkvx6a-1" style="edgeStyle=orthogonalEdgeStyle;rounded=0;orthogonalLoop=1;jettySize=auto;html=1;exitX=0.5;exitY=1;exitDx=0;exitDy=0;entryX=0.5;entryY=0;entryDx=0;entryDy=0;fontFamily=Helvetica;fontSize=12;fontColor=default;" edge="1" parent="1" source="_hnAqd-pvzHLcBddKv2N-1" target="_hnAqd-pvzHLcBddKv2N-2">
          <mxGeometry relative="1" as="geometry" />
        </mxCell>
        <mxCell id="_hnAqd-pvzHLcBddKv2N-1" value="Creamos un Random" style="rounded=1;whiteSpace=wrap;html=1;" vertex="1" parent="1">
          <mxGeometry x="480" y="40" width="200" height="80" as="geometry" />
        </mxCell>
        <mxCell id="kh9mkPXQj5ANBwgkvx6a-2" style="edgeStyle=orthogonalEdgeStyle;rounded=0;orthogonalLoop=1;jettySize=auto;html=1;exitX=0.5;exitY=1;exitDx=0;exitDy=0;entryX=0.5;entryY=0;entryDx=0;entryDy=0;fontFamily=Helvetica;fontSize=12;fontColor=default;" edge="1" parent="1" source="_hnAqd-pvzHLcBddKv2N-2" target="_hnAqd-pvzHLcBddKv2N-5">
          <mxGeometry relative="1" as="geometry" />
        </mxCell>
        <mxCell id="_hnAqd-pvzHLcBddKv2N-2" value="Solicitamos la fila (1-3)" style="rounded=1;whiteSpace=wrap;html=1;" vertex="1" parent="1">
          <mxGeometry x="480" y="160" width="200" height="80" as="geometry" />
        </mxCell>
        <mxCell id="kh9mkPXQj5ANBwgkvx6a-4" style="edgeStyle=orthogonalEdgeStyle;rounded=0;orthogonalLoop=1;jettySize=auto;html=1;exitX=0.5;exitY=1;exitDx=0;exitDy=0;entryX=0.5;entryY=0;entryDx=0;entryDy=0;fontFamily=Helvetica;fontSize=12;fontColor=default;" edge="1" parent="1" source="_hnAqd-pvzHLcBddKv2N-4" target="_hnAqd-pvzHLcBddKv2N-6">
          <mxGeometry relative="1" as="geometry" />
        </mxCell>
        <mxCell id="_hnAqd-pvzHLcBddKv2N-4" value="Solicitamos la columna (1-3)" style="rounded=1;whiteSpace=wrap;html=1;" vertex="1" parent="1">
          <mxGeometry x="480" y="400" width="200" height="80" as="geometry" />
        </mxCell>
        <mxCell id="kh9mkPXQj5ANBwgkvx6a-3" style="edgeStyle=orthogonalEdgeStyle;rounded=0;orthogonalLoop=1;jettySize=auto;html=1;exitX=0.5;exitY=1;exitDx=0;exitDy=0;entryX=0.5;entryY=0;entryDx=0;entryDy=0;fontFamily=Helvetica;fontSize=12;fontColor=default;" edge="1" parent="1" source="_hnAqd-pvzHLcBddKv2N-5" target="_hnAqd-pvzHLcBddKv2N-4">
          <mxGeometry relative="1" as="geometry" />
        </mxCell>
        <mxCell id="_hnAqd-pvzHLcBddKv2N-5" value="Recogemos el numero aleatoreo" style="rounded=1;whiteSpace=wrap;html=1;" vertex="1" parent="1">
          <mxGeometry x="480" y="280" width="200" height="80" as="geometry" />
        </mxCell>
        <mxCell id="kh9mkPXQj5ANBwgkvx6a-5" style="edgeStyle=orthogonalEdgeStyle;rounded=0;orthogonalLoop=1;jettySize=auto;html=1;exitX=0.5;exitY=1;exitDx=0;exitDy=0;entryX=0.5;entryY=0;entryDx=0;entryDy=0;fontFamily=Helvetica;fontSize=12;fontColor=default;" edge="1" parent="1" source="_hnAqd-pvzHLcBddKv2N-6" target="_MQUVFa1lNFDrsmyRUru-1">
          <mxGeometry relative="1" as="geometry" />
        </mxCell>
        <mxCell id="_hnAqd-pvzHLcBddKv2N-6" value="Recogemos el numero aleatoreo" style="rounded=1;whiteSpace=wrap;html=1;" vertex="1" parent="1">
          <mxGeometry x="480" y="530" width="200" height="80" as="geometry" />
        </mxCell>
        <UserObject label="Mostramos la &#39;O&#39; en el tablero" link="data:page/id,O1D0eLRtDBz-67mz0hgI" id="_MQUVFa1lNFDrsmyRUru-1">
          <mxCell style="rounded=1;whiteSpace=wrap;html=1;" vertex="1" parent="1">
            <mxGeometry x="480" y="660" width="200" height="80" as="geometry" />
          </mxCell>
        </UserObject>
      </root>
    </mxGraphModel>
  </diagram>
  <diagram id="O1D0eLRtDBz-67mz0hgI" name="Página-4">
    <mxGraphModel dx="1434" dy="780" grid="1" gridSize="10" guides="1" tooltips="1" connect="1" arrows="1" fold="1" page="1" pageScale="1" pageWidth="1390" pageHeight="980" math="0" shadow="0">
      <root>
        <mxCell id="0" />
        <mxCell id="1" parent="0" />
        <mxCell id="tpZd04_R4ymUTXICCweM-1" value="Mostramos el tablero" style="rounded=1;whiteSpace=wrap;html=1;strokeColor=default;align=center;verticalAlign=middle;fontFamily=Helvetica;fontSize=12;fontColor=default;fillColor=default;" vertex="1" parent="1">
          <mxGeometry x="520" y="60" width="200" height="60" as="geometry" />
        </mxCell>
        <mxCell id="VhXrA3q2Zu2T4eEZjvjm-1" value="Recibimos las coordenadas del jugador o maquina" style="rounded=1;whiteSpace=wrap;html=1;strokeColor=default;align=center;verticalAlign=middle;fontFamily=Helvetica;fontSize=12;fontColor=default;fillColor=default;" vertex="1" parent="1">
          <mxGeometry x="520" y="160" width="200" height="60" as="geometry" />
        </mxCell>
        <mxCell id="VhXrA3q2Zu2T4eEZjvjm-3" value="Mostramos en el tablero&amp;nbsp;" style="rounded=1;whiteSpace=wrap;html=1;strokeColor=default;align=center;verticalAlign=middle;fontFamily=Helvetica;fontSize=12;fontColor=default;fillColor=default;" vertex="1" parent="1">
          <mxGeometry x="520" y="260" width="200" height="60" as="geometry" />
        </mxCell>
      </root>
    </mxGraphModel>
  </diagram>
  <diagram id="4UyHGNbMUVz01JeFbusp" name="Página-5">
    <mxGraphModel dx="1434" dy="780" grid="1" gridSize="10" guides="1" tooltips="1" connect="1" arrows="1" fold="1" page="1" pageScale="1" pageWidth="1390" pageHeight="980" math="0" shadow="0">
      <root>
        <mxCell id="0" />
        <mxCell id="1" parent="0" />
        <mxCell id="UeTi0bd8tA8RGCW0uK4u-7" style="edgeStyle=orthogonalEdgeStyle;rounded=0;orthogonalLoop=1;jettySize=auto;html=1;exitX=0.5;exitY=1;exitDx=0;exitDy=0;entryX=0.5;entryY=0;entryDx=0;entryDy=0;fontFamily=Helvetica;fontSize=12;fontColor=default;" edge="1" parent="1" source="UeTi0bd8tA8RGCW0uK4u-1" target="UeTi0bd8tA8RGCW0uK4u-2">
          <mxGeometry relative="1" as="geometry" />
        </mxCell>
        <mxCell id="UeTi0bd8tA8RGCW0uK4u-1" value="Creamos un random entre 1 y 2" style="rounded=1;whiteSpace=wrap;html=1;strokeColor=default;align=center;verticalAlign=middle;fontFamily=Helvetica;fontSize=12;fontColor=default;fillColor=default;" vertex="1" parent="1">
          <mxGeometry x="520" y="40" width="160" height="60" as="geometry" />
        </mxCell>
        <mxCell id="UeTi0bd8tA8RGCW0uK4u-8" style="edgeStyle=orthogonalEdgeStyle;rounded=0;orthogonalLoop=1;jettySize=auto;html=1;exitX=0.5;exitY=1;exitDx=0;exitDy=0;entryX=0.5;entryY=0;entryDx=0;entryDy=0;fontFamily=Helvetica;fontSize=12;fontColor=default;" edge="1" parent="1" source="UeTi0bd8tA8RGCW0uK4u-2" target="UeTi0bd8tA8RGCW0uK4u-4">
          <mxGeometry relative="1" as="geometry" />
        </mxCell>
        <mxCell id="UeTi0bd8tA8RGCW0uK4u-2" value="Asigno 1 a persona y 2 a maquina" style="rounded=1;whiteSpace=wrap;html=1;strokeColor=default;align=center;verticalAlign=middle;fontFamily=Helvetica;fontSize=12;fontColor=default;fillColor=default;" vertex="1" parent="1">
          <mxGeometry x="520" y="150" width="160" height="60" as="geometry" />
        </mxCell>
        <mxCell id="UeTi0bd8tA8RGCW0uK4u-9" style="edgeStyle=orthogonalEdgeStyle;rounded=0;orthogonalLoop=1;jettySize=auto;html=1;exitX=0.5;exitY=1;exitDx=0;exitDy=0;entryX=0.5;entryY=0;entryDx=0;entryDy=0;fontFamily=Helvetica;fontSize=12;fontColor=default;fillColor=#fad7ac;strokeColor=#b46504;" edge="1" parent="1" source="UeTi0bd8tA8RGCW0uK4u-4" target="UeTi0bd8tA8RGCW0uK4u-5">
          <mxGeometry relative="1" as="geometry" />
        </mxCell>
        <mxCell id="UeTi0bd8tA8RGCW0uK4u-10" style="edgeStyle=orthogonalEdgeStyle;rounded=0;orthogonalLoop=1;jettySize=auto;html=1;exitX=1;exitY=0.5;exitDx=0;exitDy=0;entryX=0;entryY=0.5;entryDx=0;entryDy=0;fontFamily=Helvetica;fontSize=12;fontColor=default;strokeColor=light-dark(#B20000, #ff0000);fillColor=#e51400;" edge="1" parent="1" source="UeTi0bd8tA8RGCW0uK4u-4" target="UeTi0bd8tA8RGCW0uK4u-6">
          <mxGeometry relative="1" as="geometry" />
        </mxCell>
        <mxCell id="UeTi0bd8tA8RGCW0uK4u-4" value="If random = 1" style="rhombus;whiteSpace=wrap;html=1;rounded=1;strokeColor=default;align=center;verticalAlign=middle;fontFamily=Helvetica;fontSize=12;fontColor=default;fillColor=default;" vertex="1" parent="1">
          <mxGeometry x="545" y="260" width="110" height="100" as="geometry" />
        </mxCell>
        <UserObject label="Empieza el jugador" link="data:page/id,SMjD8cbjWDfh5UchtumX" id="UeTi0bd8tA8RGCW0uK4u-5">
          <mxCell style="rounded=1;whiteSpace=wrap;html=1;strokeColor=default;align=center;verticalAlign=middle;fontFamily=Helvetica;fontSize=12;fontColor=default;fillColor=default;" vertex="1" parent="1">
            <mxGeometry x="520" y="410" width="160" height="60" as="geometry" />
          </mxCell>
        </UserObject>
        <UserObject label="Empieza la maquina" link="data:page/id,G00Kvy4_vVHr3NjlVoM4" id="UeTi0bd8tA8RGCW0uK4u-6">
          <mxCell style="rounded=1;whiteSpace=wrap;html=1;strokeColor=default;align=center;verticalAlign=middle;fontFamily=Helvetica;fontSize=12;fontColor=default;fillColor=default;" vertex="1" parent="1">
            <mxGeometry x="740" y="280" width="160" height="60" as="geometry" />
          </mxCell>
        </UserObject>
      </root>
    </mxGraphModel>
  </diagram>
  <diagram id="_XcbKt95XyZNaCErvyzg" name="Página-6">
    <mxGraphModel dx="1434" dy="780" grid="1" gridSize="10" guides="1" tooltips="1" connect="1" arrows="1" fold="1" page="1" pageScale="1" pageWidth="1390" pageHeight="980" math="0" shadow="0">
      <root>
        <mxCell id="0" />
        <mxCell id="1" parent="0" />
        <mxCell id="x_ic3-7m9HRmF5M8d9p5-1" value="Validador" style="rounded=1;whiteSpace=wrap;html=1;strokeColor=default;align=center;verticalAlign=middle;fontFamily=Helvetica;fontSize=12;fontColor=default;fillColor=default;" vertex="1" parent="1">
          <mxGeometry x="560" y="120" width="160" height="60" as="geometry" />
        </mxCell>
        <mxCell id="x_ic3-7m9HRmF5M8d9p5-2" value="Mostramos el tablero" style="rounded=1;whiteSpace=wrap;html=1;strokeColor=default;align=center;verticalAlign=middle;fontFamily=Helvetica;fontSize=12;fontColor=default;fillColor=default;" vertex="1" parent="1">
          <mxGeometry x="560" y="220" width="160" height="60" as="geometry" />
        </mxCell>
        <mxCell id="x_ic3-7m9HRmF5M8d9p5-3" value="Pasamos el Char para que valide&amp;nbsp;" style="rounded=1;whiteSpace=wrap;html=1;strokeColor=default;align=center;verticalAlign=middle;fontFamily=Helvetica;fontSize=12;fontColor=default;fillColor=default;" vertex="1" parent="1">
          <mxGeometry x="560" y="330" width="160" height="60" as="geometry" />
        </mxCell>
      </root>
    </mxGraphModel>
  </diagram>
</mxfile>
